<svg xmlns="http://www.w3.org/2000/svg" xmlns:xlink="http://www.w3.org/1999/xlink" id="Layer_1" x="0px" y="0px" viewBox="0 0 437.94 162.61" style="enable-background:new 0 0 437.94 162.61;" xml:space="preserve"><style type="text/css">	.st0{opacity:0.76;}	.st1{clip-path:url(#SVGID_00000002364145921745172650000016125483573737548178_);fill:#FFFFFF;}			.st2{clip-path:url(#SVGID_00000002364145921745172650000016125483573737548178_);fill:none;stroke:#1172BA;stroke-width:2.702;stroke-linejoin:round;stroke-miterlimit:10;}	.st3{fill:#FFFFFF;}	.st4{fill:none;stroke:#3370B5;stroke-width:4.922;}	.st5{fill:#3370B5;}	.st6{fill:none;stroke:#3370B5;stroke-width:4.949;}	.st7{fill:none;stroke:#FFFFFF;stroke-width:1.759;}	.st8{fill:none;stroke:#3370B5;stroke-width:1.759;}	.st9{fill:none;stroke:#3370B5;stroke-width:4.883;stroke-linejoin:round;}	.st10{fill:none;stroke:#1172BA;stroke-width:2.702;stroke-linejoin:round;stroke-miterlimit:10;}</style><g class="st0">	<g>		<defs>			<rect id="SVGID_1_" x="2.53" y="125.69" width="432.88" height="34.74"></rect>		</defs>		<clipPath id="SVGID_00000129912202439664556180000008018637185971125888_">			<use xlink:href="#SVGID_1_" style="overflow:visible;"></use>		</clipPath>					<rect x="3.88" y="127.04" style="clip-path:url(#SVGID_00000129912202439664556180000008018637185971125888_);fill:#FFFFFF;" width="430.18" height="32.03"></rect>					<rect x="3.88" y="127.04" style="clip-path:url(#SVGID_00000129912202439664556180000008018637185971125888_);fill:none;stroke:#1172BA;stroke-width:2.702;stroke-linejoin:round;stroke-miterlimit:10;" width="430.18" height="32.03"></rect>	</g></g><rect x="6.58" y="8.94" class="st3" width="209.2" height="107.3"></rect><rect x="6.58" y="8.94" class="st4" width="209.2" height="107.3"></rect><rect x="218.79" y="8.94" class="st5" width="211.5" height="107.3"></rect><rect x="218.79" y="8.94" class="st6" width="211.5" height="107.3"></rect><polygon class="st3" points="245.54,30.54 230.84,30.54 230.84,97.96 274.85,97.96 274.85,84.45 245.54,84.45 "></polygon><polygon class="st7" points="245.54,30.54 230.84,30.54 230.84,97.96 274.85,97.96 274.85,84.45 245.54,84.45 "></polygon><path class="st3" d="M327.61,57.64v12.12v1.39c0,3.72-1.45,6.9-4.37,9.53c-2.92,2.64-6.37,3.97-10.38,3.97 c-4.05,0-7.51-1.34-10.38-3.97c-2.87-2.63-4.32-5.81-4.32-9.53v-1.39V57.64v-27.1h-14.79v27.1V71.2c0,7.48,2.86,13.88,8.64,19.2 c5.78,5.31,12.74,7.94,20.89,7.94c8.1,0,15.06-2.63,20.84-7.94c5.78-5.32,8.65-11.72,8.65-19.2V57.64v-27.1h-14.79V57.64z"></path><path class="st7" d="M327.61,57.64v12.12v1.39c0,3.72-1.45,6.9-4.37,9.53c-2.92,2.64-6.37,3.97-10.38,3.97 c-4.05,0-7.51-1.34-10.38-3.97c-2.87-2.63-4.32-5.81-4.32-9.53v-1.39V57.64v-27.1h-14.79v27.1V71.2c0,7.48,2.86,13.88,8.64,19.2 c5.78,5.31,12.74,7.94,20.89,7.94c8.1,0,15.06-2.63,20.84-7.94c5.78-5.32,8.65-11.72,8.65-19.2V57.64v-27.1h-14.79V57.64z"></path><polygon class="st3" points="399.59,30.54 399.59,72.56 371.03,30.55 371.03,30.54 356.18,30.54 356.18,97.96 370.88,97.96  370.97,56.13 399.54,97.96 399.59,97.92 399.59,97.96 414.29,97.96 414.36,65.82 414.36,30.54 "></polygon><polygon class="st7" points="399.59,30.54 399.59,72.56 371.03,30.55 371.03,30.54 356.18,30.54 356.18,97.96 370.88,97.96  370.97,56.13 399.54,97.96 399.59,97.92 399.59,97.96 414.29,97.96 414.36,65.82 414.36,30.54 "></polygon><path class="st5" d="M44.02,30.79v0.04H25.91v67.26h18.11c10.05,0,19.57-3.31,26.76-9.87c13.11-12,13.11-35.47,0-47.52 C63.59,34.09,54.08,30.79,44.02,30.79 M59.95,79.1c-4.28,3.93-9.83,5.48-15.84,5.48h-0.04h-3.46V44.22h3.36 c6.01,0,11.65,1.54,15.93,5.52c4.32,3.97,6.01,9.16,6.01,14.68C65.91,69.98,64.23,75.17,59.95,79.1"></path><path class="st8" d="M44.02,30.79v0.04H25.91v67.26h18.11c10.05,0,19.57-3.31,26.76-9.87c13.11-12,13.11-35.47,0-47.52 C63.59,34.09,54.08,30.79,44.02,30.79 M59.95,79.1c-4.28,3.93-9.83,5.48-15.84,5.48h-0.04h-3.46V44.22h3.36 c6.01,0,11.65,1.54,15.93,5.52c4.32,3.97,6.01,9.16,6.01,14.68C65.91,69.98,64.23,75.17,59.95,79.1"></path><polygon class="st5" points="176.36,52.1 163.71,30.73 147.05,30.73 169.03,67.92 169.03,98.15 183.69,98.15 183.69,67.92  205.71,30.73 189.01,30.73 "></polygon><polygon class="st8" points="176.36,52.1 163.71,30.73 147.05,30.73 169.03,67.92 169.03,98.15 183.69,98.15 183.69,67.92  205.71,30.73 189.01,30.73 "></polygon><path class="st5" d="M138.72,98.07h15.84L121.8,30.81h-15.76c0.89,1.82,2.7,5.53,5.01,10.31L83.42,98.07h15.79 c0.86-1.75,6.02-12.27,10.86-22.14l23.68,11.9C136.51,93.52,138.59,97.81,138.72,98.07 M112.59,70.77 c3.57-7.29,6.46-13.18,6.46-13.18s5.41,11.14,10.56,21.74L112.59,70.77z"></path><path class="st8" d="M138.72,98.07h15.84L121.8,30.81h-15.76c0.89,1.82,2.7,5.53,5.01,10.31L83.42,98.07h15.79 c0.86-1.75,6.02-12.27,10.86-22.14l23.68,11.9C136.51,93.52,138.59,97.81,138.72,98.07z M112.59,70.77 c3.57-7.29,6.46-13.18,6.46-13.18s5.41,11.14,10.56,21.74L112.59,70.77z"></path><rect x="202.78" y="48.02" class="st3" width="21.67" height="29.59"></rect><rect x="4.7" y="4.65" class="st9" width="428.18" height="111.6"></rect><rect x="3.88" y="127.04" class="st10" width="430.18" height="32.03"></rect><path class="st5" d="M35.97,143.07c0-2.49,0.84-4.43,2.51-5.82c1.67-1.39,4-2.08,6.98-2.08c3.06,0,5.42,0.68,7.07,2.05 c1.65,1.36,2.48,3.27,2.48,5.73c0,1.78-0.36,3.25-1.08,4.39c-0.72,1.14-1.77,2.03-3.13,2.67c-1.37,0.63-3.07,0.95-5.11,0.95 c-2.07,0-3.79-0.27-5.15-0.82c-1.36-0.55-2.46-1.42-3.3-2.6C36.39,146.34,35.97,144.85,35.97,143.07 M41.65,143.09 c0,1.54,0.34,2.65,1.03,3.32c0.69,0.67,1.63,1.01,2.82,1.01c1.22,0,2.16-0.33,2.83-0.99c0.67-0.66,1-1.84,1-3.55 c0-1.44-0.35-2.49-1.05-3.15c-0.7-0.66-1.64-0.99-2.84-0.99c-1.15,0-2.07,0.34-2.76,1.01C42,140.42,41.65,141.54,41.65,143.09"></path><path class="st5" d="M72.6,135.43h5.67v9.1c0,0.9-0.17,1.75-0.51,2.55c-0.34,0.8-0.87,1.5-1.59,2.1c-0.72,0.6-1.48,1.02-2.28,1.26 c-1.1,0.34-2.43,0.51-3.97,0.51c-0.89,0-1.87-0.05-2.93-0.16c-1.06-0.1-1.94-0.31-2.65-0.62c-0.71-0.31-1.36-0.75-1.95-1.32 c-0.59-0.57-0.99-1.16-1.21-1.76c-0.35-0.97-0.53-1.83-0.53-2.58v-9.1h5.67v9.31c0,0.83,0.28,1.48,0.83,1.95 c0.56,0.47,1.33,0.7,2.31,0.7c0.98,0,1.74-0.23,2.3-0.69c0.56-0.46,0.83-1.11,0.83-1.96V135.43z"></path><path class="st5" d="M83.6,145.64l5.4-0.28c0.12,0.73,0.36,1.28,0.71,1.67c0.59,0.62,1.42,0.93,2.51,0.93 c0.81,0,1.43-0.16,1.87-0.47c0.44-0.32,0.66-0.68,0.66-1.1c0-0.4-0.21-0.75-0.63-1.06c-0.42-0.31-1.39-0.61-2.91-0.88 c-2.49-0.46-4.27-1.08-5.33-1.85c-1.07-0.77-1.61-1.75-1.61-2.95c0-0.79,0.27-1.52,0.82-2.22c0.55-0.7,1.37-1.25,2.47-1.65 c1.1-0.4,2.61-0.6,4.52-0.6c2.35,0,4.14,0.36,5.37,1.09c1.23,0.73,1.97,1.88,2.2,3.46l-5.35,0.26c-0.14-0.69-0.44-1.19-0.9-1.5 c-0.46-0.31-1.08-0.47-1.89-0.47c-0.66,0-1.16,0.12-1.49,0.35c-0.33,0.23-0.5,0.51-0.5,0.85c0,0.24,0.14,0.46,0.41,0.66 c0.27,0.2,0.9,0.39,1.9,0.56c2.48,0.45,4.26,0.9,5.34,1.35c1.07,0.46,1.85,1.02,2.34,1.69c0.49,0.67,0.73,1.43,0.73,2.26 c0,0.98-0.33,1.88-0.98,2.71c-0.65,0.83-1.56,1.45-2.73,1.88c-1.17,0.43-2.65,0.64-4.43,0.64c-3.12,0-5.29-0.5-6.49-1.5 C84.44,148.45,83.76,147.18,83.6,145.64"></path><rect x="105.92" y="135.43" class="st5" width="5.69" height="15.26"></rect><polygon class="st5" points="118.3,135.43 123.6,135.43 130.52,143.87 130.52,135.43 135.87,135.43 135.87,150.69 130.52,150.69  123.64,142.31 123.64,150.69 118.3,150.69 "></polygon><path class="st5" d="M151.45,145.16v-3.17h8.77v6.51c-1.68,0.95-3.17,1.6-4.46,1.94c-1.29,0.34-2.82,0.51-4.59,0.51 c-2.18,0-3.96-0.31-5.33-0.93c-1.37-0.62-2.44-1.54-3.2-2.76c-0.76-1.22-1.13-2.62-1.13-4.21c0-1.67,0.41-3.11,1.24-4.35 c0.83-1.23,2.04-2.17,3.63-2.81c1.25-0.49,2.92-0.74,5.03-0.74c2.03,0,3.55,0.15,4.56,0.46c1.01,0.3,1.84,0.78,2.51,1.42 c0.67,0.64,1.16,1.46,1.5,2.44l-5.48,0.81c-0.22-0.58-0.61-1.02-1.15-1.32c-0.54-0.3-1.23-0.46-2.06-0.46 c-1.24,0-2.24,0.36-2.98,1.08c-0.74,0.72-1.11,1.85-1.11,3.41c0,1.65,0.38,2.83,1.12,3.54c0.75,0.71,1.79,1.06,3.13,1.06 c0.64,0,1.24-0.08,1.82-0.23c0.58-0.15,1.24-0.41,1.98-0.78v-1.44H151.45z"></path><path class="st5" d="M176.65,143.26c0-2.53,0.82-4.52,2.46-5.95c1.64-1.43,3.75-2.15,6.34-2.15c1.7,0,3.23,0.34,4.59,1.01 s2.4,1.61,3.11,2.82c0.72,1.2,1.07,2.57,1.07,4.1c0,1.55-0.38,2.93-1.13,4.15c-0.75,1.22-1.82,2.15-3.2,2.77 c-1.38,0.63-2.87,0.94-4.46,0.94c-1.73,0-3.28-0.35-4.64-1.04s-2.4-1.64-3.1-2.84C177,145.87,176.65,144.6,176.65,143.26  M179.16,143.29c0,1.84,0.59,3.29,1.79,4.35c1.19,1.06,2.68,1.59,4.48,1.59c1.83,0,3.34-0.53,4.52-1.6 c1.18-1.07,1.77-2.59,1.77-4.55c0-1.24-0.25-2.33-0.76-3.25c-0.51-0.93-1.24-1.65-2.22-2.16c-0.97-0.51-2.07-0.76-3.28-0.76 c-1.72,0-3.2,0.49-4.44,1.47C179.78,139.35,179.16,140.99,179.16,143.29"></path><polygon class="st5" points="200.05,150.69 200.05,135.43 212.45,135.43 212.45,137.23 202.49,137.23 202.49,141.96 211.11,141.96  211.11,143.76 202.49,143.76 202.49,150.69 "></polygon><polygon class="st5" points="232.09,150.69 232.09,137.23 226.04,137.23 226.04,135.43 240.6,135.43 240.6,137.23 234.52,137.23  234.52,150.69 "></polygon><polygon class="st5" points="245.74,150.69 245.74,135.43 248.17,135.43 248.17,141.7 257.72,141.7 257.72,135.43 260.15,135.43  260.15,150.69 257.72,150.69 257.72,143.5 248.17,143.5 248.17,150.69 "></polygon><polygon class="st5" points="266.82,150.69 266.82,135.43 280.11,135.43 280.11,137.23 269.25,137.23 269.25,141.9 279.42,141.9  279.42,143.69 269.25,143.69 269.25,148.89 280.54,148.89 280.54,150.69 "></polygon><path class="st5" d="M327.71,135.43h5.67v9.1c0,0.9-0.17,1.75-0.51,2.55c-0.34,0.8-0.87,1.5-1.59,2.1s-1.48,1.02-2.27,1.26 c-1.1,0.34-2.43,0.51-3.97,0.51c-0.89,0-1.87-0.05-2.93-0.16c-1.06-0.1-1.94-0.31-2.65-0.62c-0.71-0.31-1.36-0.75-1.95-1.32 c-0.59-0.57-0.99-1.16-1.21-1.76c-0.35-0.97-0.53-1.83-0.53-2.58v-9.1h5.67v9.31c0,0.83,0.28,1.48,0.83,1.95 c0.56,0.47,1.33,0.7,2.31,0.7c0.98,0,1.74-0.23,2.3-0.69c0.56-0.46,0.83-1.11,0.83-1.96V135.43z"></path><polygon class="st5" points="338.42,135.43 355.68,135.43 355.68,139.2 349.89,139.2 349.89,150.69 344.21,150.69 344.21,139.2  338.42,139.2 "></polygon><path class="st5" d="M372.77,135.43h5.67v9.1c0,0.9-0.17,1.75-0.51,2.55c-0.34,0.8-0.87,1.5-1.59,2.1s-1.48,1.02-2.27,1.26 c-1.1,0.34-2.43,0.51-3.97,0.51c-0.89,0-1.87-0.05-2.93-0.16c-1.06-0.1-1.94-0.31-2.65-0.62c-0.71-0.31-1.36-0.75-1.95-1.32 c-0.59-0.57-0.99-1.16-1.21-1.76c-0.35-0.97-0.53-1.83-0.53-2.58v-9.1h5.67v9.31c0,0.83,0.28,1.48,0.83,1.95 c0.56,0.47,1.33,0.7,2.31,0.7c0.98,0,1.74-0.23,2.3-0.69c0.56-0.46,0.83-1.11,0.83-1.96V135.43z"></path><path class="st5" d="M384.84,150.69v-15.26h9.46c1.76,0,3.1,0.13,4.02,0.38c0.93,0.25,1.68,0.71,2.24,1.39 c0.57,0.68,0.85,1.5,0.85,2.47c0,0.85-0.22,1.58-0.65,2.19c-0.43,0.61-1.03,1.11-1.79,1.49c-0.49,0.24-1.15,0.44-2,0.6 c0.68,0.19,1.17,0.38,1.48,0.56c0.21,0.12,0.51,0.39,0.91,0.8c0.4,0.41,0.66,0.73,0.8,0.95l2.75,4.42h-6.42l-3.04-4.66 c-0.38-0.6-0.73-1-1.03-1.18c-0.41-0.24-0.87-0.36-1.39-0.36h-0.5v6.2H384.84z M390.55,141.61h2.39c0.26,0,0.76-0.07,1.5-0.21 c0.38-0.06,0.68-0.22,0.92-0.48c0.24-0.26,0.36-0.55,0.36-0.88c0-0.49-0.19-0.87-0.56-1.13c-0.38-0.26-1.08-0.4-2.12-0.4h-2.49 V141.61z"></path><rect x="17.61" y="143.24" class="st5" width="8.59" height="1.38"></rect><path class="st5" d="M24.64,135.43v4.35h-6.21v-4.35h-5.68v15.26h5.68v-5.61h6.21v5.61h5.7v-15.26H24.64z M18.41,141.16h6.26v2.22 h-6.26V141.16z"></path><polygon class="st5" points="412.98,147.24 412.98,144.23 418.72,144.23 418.72,141.11 412.98,141.11 412.98,138.69 422.51,138.69  422.51,135.43 407.29,135.43 407.29,141.11 409.05,141.11 409.05,144.16 407.29,144.16 407.29,150.69 422.79,150.69 422.79,147.24  "></polygon><polygon class="st5" points="310.13,138.71 310.13,135.43 296.09,135.43 296.09,141.29 298.19,141.29 298.19,144.25 296.09,144.25  296.09,150.69 301.79,150.69 301.79,144.46 308.91,144.46 308.91,141.37 301.79,141.37 301.79,138.71 "></polygon></svg>