<svg xmlns="http://www.w3.org/2000/svg" xmlns:xlink="http://www.w3.org/1999/xlink" id="Layer_1" x="0px" y="0px" viewBox="0 0 617.6 169" style="enable-background:new 0 0 617.6 169;" xml:space="preserve"><style type="text/css">	.st0{fill:#FFFFFF;stroke:#0071BC;stroke-width:6.9282;}	.st1{fill:#0071BC;stroke:#0071BC;stroke-width:6.9662;}	.st2{fill:#FFFFFF;stroke:#FFFFFF;stroke-width:2.4759;}	.st3{fill:#0071BC;stroke:#0071BC;stroke-width:2.4759;}	.st4{fill:#FFFFFF;}</style><rect x="10.6" y="9" class="st0" width="294.5" height="151"></rect><rect x="309.3" y="9" class="st1" width="297.7" height="151"></rect><g>	<polygon class="st2" points="347,39.4 326.3,39.4 326.3,134.3 388.2,134.3 388.2,115.3 347,115.3  "></polygon>	<path class="st2" d="M462.5,77.6v17.1v1.9c0,5.2-2,9.7-6.1,13.4c-4.1,3.7-9,5.6-14.6,5.6c-5.7,0-10.6-1.9-14.6-5.6  c-4-3.7-6.1-8.2-6.1-13.4v-1.9V77.6V39.4h-20.8v38.2v19.1c0,10.5,4,19.5,12.2,27c8.1,7.5,17.9,11.2,29.4,11.2  c11.4,0,21.2-3.7,29.3-11.2c8.1-7.5,12.2-16.5,12.2-27V77.6V39.4h-20.8v38.2H462.5z"></path>	<polygon class="st2" points="563.8,39.4 563.8,98.5 523.6,39.4 523.6,39.4 502.7,39.4 502.7,134.3 523.4,134.3 523.5,75.4   563.7,134.3 563.8,134.2 563.8,134.3 584.5,134.3 584.6,89.1 584.6,39.4  "></polygon></g><g>	<path class="st3" d="M63.3,39.8L63.3,39.8l-25.5,0.1v94.7h25.5c14.2,0,27.5-4.6,37.7-13.9c18.4-16.9,18.4-49.9,0-66.9  C90.9,44.4,77.5,39.8,63.3,39.8 M85.8,107.8c-6,5.5-13.8,7.7-22.3,7.7h-0.1h-4.9V58.7h4.7c8.5,0,16.4,2.2,22.4,7.8  c6.1,5.6,8.4,12.9,8.4,20.7C94.2,94.9,91.8,102.2,85.8,107.8"></path>	<polygon class="st3" points="249.6,69.8 231.8,39.7 208.4,39.7 239.3,92 239.3,134.6 259.9,134.6 259.9,92 290.9,39.7 267.4,39.7    "></polygon>	<path class="st3" d="M196.6,134.4h22.3l-46.1-94.7h-22.2c1.2,2.6,3.8,7.8,7.1,14.5l-38.9,80.1H141c1.2-2.5,8.5-17.3,15.3-31.2  l33.3,16.8C193.5,128,196.4,134.1,196.6,134.4z M159.9,96c5-10.3,9.1-18.5,9.1-18.5s7.6,15.7,14.9,30.6L159.9,96z"></path></g><g>	<path class="st4" d="M566,31.2v-6.9h-3.2v-1.4h8.5v1.4h-3.2v6.9H566z"></path>	<path class="st4" d="M572.7,31.2v-8.3h3.2l2,5.7l1.9-5.7h3.2v8.3h-2v-6.6l-2.1,6.6h-2.1l-2.1-6.6v6.6H572.7z"></path></g><rect x="286.8" y="64" class="st4" width="30.5" height="41.7"></rect></svg>