<svg xmlns="http://www.w3.org/2000/svg" xmlns:xlink="http://www.w3.org/1999/xlink" x="0px" y="0px" width="261px" height="574px" viewBox="0 0 261 574" xml:space="preserve">
<g id="Layer_1" display="none">
	<g display="inline">
		<defs>
			<polygon id="SVGID_1_" points="39.36,90.378 39.36,570.195 256.42,503.621 256.42,23.806    "></polygon>
		</defs>
		<clipPath id="SVGID_2_">
			<use xlink:href="#SVGID_1_"></use>
		</clipPath>
		<g clip-path="url(#SVGID_2_)">
			<defs>
				<rect id="SVGID_3_" x="25.792" y="-3332.197" width="1440" height="6814"></rect>
			</defs>
			<clipPath id="SVGID_4_">
				<use xlink:href="#SVGID_3_"></use>
			</clipPath>
			<rect x="34.36" y="18.806" clip-path="url(#SVGID_4_)" fill="#E2E6EA" width="227.06" height="556.389"></rect>
		</g>
	</g>
	<g display="inline">
		<defs>
			<polygon id="SVGID_5_" points="219.853,3.803 2.792,70.377 2.792,550.193 41.146,570.195 41.146,90.378 258.207,23.806    "></polygon>
		</defs>
		<clipPath id="SVGID_6_">
			<use xlink:href="#SVGID_5_"></use>
		</clipPath>
		<g clip-path="url(#SVGID_6_)">
			<defs>
				<polyline id="SVGID_7_" points="-14.208,3481.803 1465.793,3481.803 1465.793,-3332.197 -14.208,-3332.197     "></polyline>
			</defs>
			<clipPath id="SVGID_8_">
				<use xlink:href="#SVGID_7_"></use>
			</clipPath>
			<rect x="-2.208" y="-1.197" clip-path="url(#SVGID_8_)" fill="#B6CAD3" width="265.415" height="576.392"></rect>
		</g>
	</g>
</g>
<g id="Layer_2">
	<g>
		<defs>
			<polygon id="SVGID_9_" points="238.587,163.151 27.699,227.774 27.699,82.379 238.587,17.756    "></polygon>
		</defs>
		<clipPath id="SVGID_10_">
			<use xlink:href="#SVGID_9_"></use>
		</clipPath>
		<g clip-path="url(#SVGID_10_)">
			<defs>
				<rect id="SVGID_11_" x="-325.679" y="-3345.04" width="1440" height="6814.001"></rect>
			</defs>
			<clipPath id="SVGID_12_">
				<use xlink:href="#SVGID_11_"></use>
			</clipPath>
			<rect x="22.7" y="12.756" clip-path="url(#SVGID_12_)" fill="#19B597" width="220.885" height="220.019"></rect>
		</g>
	</g>
	<g>
		<defs>
			<polygon id="SVGID_13_" points="232.207,10.96 21.321,75.584 21.321,220.978 29.437,227.774 29.437,82.379 240.321,17.756    "></polygon>
		</defs>
		<clipPath id="SVGID_14_">
			<use xlink:href="#SVGID_13_"></use>
		</clipPath>
		<g clip-path="url(#SVGID_14_)">
			<defs>
				<rect id="SVGID_15_" x="-325.679" y="-3345.04" width="1440" height="6814.001"></rect>
			</defs>
			<clipPath id="SVGID_16_">
				<use xlink:href="#SVGID_15_"></use>
			</clipPath>
			<rect x="16.322" y="5.96" clip-path="url(#SVGID_16_)" fill="#127764" width="229" height="226.814"></rect>
		</g>
	</g>
	<g>
		<defs>
			<polygon id="SVGID_17_" points="238.587,330.93 27.699,395.553 27.699,250.158 238.587,185.535    "></polygon>
		</defs>
		<clipPath id="SVGID_18_">
			<use xlink:href="#SVGID_17_"></use>
		</clipPath>
		<g clip-path="url(#SVGID_18_)">
			<defs>
				<rect id="SVGID_19_" x="-325.679" y="-3345.04" width="1440" height="6814.001"></rect>
			</defs>
			<clipPath id="SVGID_20_">
				<use xlink:href="#SVGID_19_"></use>
			</clipPath>
			<rect x="22.7" y="180.535" clip-path="url(#SVGID_20_)" fill="#19B597" width="220.885" height="220.018"></rect>
		</g>
	</g>
	<g>
		<defs>
			<polygon id="SVGID_21_" points="21.321,243.363 21.321,388.758 29.436,395.553 29.436,250.159 240.321,185.534 232.206,178.738         "></polygon>
		</defs>
		<clipPath id="SVGID_22_">
			<use xlink:href="#SVGID_21_"></use>
		</clipPath>
		<g clip-path="url(#SVGID_22_)">
			<defs>
				<rect id="SVGID_23_" x="-325.679" y="-3345.04" width="1440" height="6814.001"></rect>
			</defs>
			<clipPath id="SVGID_24_">
				<use xlink:href="#SVGID_23_"></use>
			</clipPath>
			<rect x="16.321" y="173.738" clip-path="url(#SVGID_24_)" fill="#127764" width="229" height="226.816"></rect>
		</g>
	</g>
	<g>
		<defs>
			<polygon id="SVGID_25_" points="27.7,418.564 27.7,563.959 238.585,499.338 238.585,353.941    "></polygon>
		</defs>
		<clipPath id="SVGID_26_">
			<use xlink:href="#SVGID_25_"></use>
		</clipPath>
		<g clip-path="url(#SVGID_26_)">
			<defs>
				<rect id="SVGID_27_" x="-325.679" y="-3345.04" width="1440" height="6814.001"></rect>
			</defs>
			<clipPath id="SVGID_28_">
				<use xlink:href="#SVGID_27_"></use>
			</clipPath>
			<rect x="22.7" y="348.941" clip-path="url(#SVGID_28_)" fill="#19B597" width="220.885" height="220.018"></rect>
		</g>
	</g>
	<g>
		<defs>
			<polygon id="SVGID_29_" points="21.321,411.77 21.321,557.164 29.436,563.961 29.436,418.564 240.321,353.941 232.206,347.146         "></polygon>
		</defs>
		<clipPath id="SVGID_30_">
			<use xlink:href="#SVGID_29_"></use>
		</clipPath>
		<g clip-path="url(#SVGID_30_)">
			<defs>
				<rect id="SVGID_31_" x="-325.679" y="-3345.04" width="1440" height="6814.001"></rect>
			</defs>
			<clipPath id="SVGID_32_">
				<use xlink:href="#SVGID_31_"></use>
			</clipPath>
			<rect x="16.321" y="342.146" clip-path="url(#SVGID_32_)" fill="#127764" width="229" height="226.814"></rect>
		</g>
	</g>
</g>
<g id="Layer_3" display="none">
	<g display="inline">
		<defs>
			<polygon id="SVGID_33_" points="0,553.668 38.892,574 259,506.332 220.107,486    "></polygon>
		</defs>
		<clipPath id="SVGID_34_">
			<use xlink:href="#SVGID_33_"></use>
		</clipPath>
		<g clip-path="url(#SVGID_34_)">
			<defs>
				<rect id="SVGID_35_" x="-617" y="-3351" width="1440" height="6814"></rect>
			</defs>
			<clipPath id="SVGID_36_">
				<use xlink:href="#SVGID_35_"></use>
			</clipPath>
			<rect x="-5" y="481" clip-path="url(#SVGID_36_)" fill="#77B5B9" width="269" height="98"></rect>
		</g>
	</g>
	<g display="inline">
		<defs>
			<polygon id="SVGID_37_" points="0,320.67 38.892,341 259,273.332 220.107,253    "></polygon>
		</defs>
		<clipPath id="SVGID_38_">
			<use xlink:href="#SVGID_37_"></use>
		</clipPath>
		<g clip-path="url(#SVGID_38_)">
			<defs>
				<rect id="SVGID_39_" x="-617" y="-3351" width="1440" height="6814"></rect>
			</defs>
			<clipPath id="SVGID_40_">
				<use xlink:href="#SVGID_39_"></use>
			</clipPath>
			<rect x="-5" y="248" clip-path="url(#SVGID_40_)" fill="#77B5B9" width="269" height="98"></rect>
		</g>
	</g>
	<g display="inline">
		<defs>
			<polygon id="SVGID_41_" points="220,0 220,485.752 259,506 259,20.25    "></polygon>
		</defs>
		<clipPath id="SVGID_42_">
			<use xlink:href="#SVGID_41_"></use>
		</clipPath>
		<g clip-path="url(#SVGID_42_)">
			<defs>
				<rect id="SVGID_43_" x="-617" y="-3351" width="1440" height="6814"></rect>
			</defs>
			<clipPath id="SVGID_44_">
				<use xlink:href="#SVGID_43_"></use>
			</clipPath>
			<rect x="215" y="-5" clip-path="url(#SVGID_44_)" fill="#77B5B9" width="49" height="516"></rect>
		</g>
	</g>
	<g display="inline">
		<defs>
			<polygon id="SVGID_45_" points="222.107,0 2,67.352 2,552.766 40.893,573 40.893,87.585 261,20.236    "></polygon>
		</defs>
		<clipPath id="SVGID_46_">
			<use xlink:href="#SVGID_45_"></use>
		</clipPath>
		<g clip-path="url(#SVGID_46_)">
			<defs>
				<rect id="SVGID_47_" x="-617" y="-3351" width="1440" height="6814"></rect>
			</defs>
			<clipPath id="SVGID_48_">
				<use xlink:href="#SVGID_47_"></use>
			</clipPath>
			<rect x="-3" y="-5" clip-path="url(#SVGID_48_)" fill="#77B5B9" width="269" height="583"></rect>
		</g>
	</g>
	<g display="inline">
		<defs>
			<path id="SVGID_49_" d="M53.904,340.91l193.442-59.246v215.318L53.904,556.229V340.91z M53.904,104.737l193.442-59.245v215.32     L53.904,320.059V104.737z M39,88.378V574l220-67.379V21l-92.714,28.395L39,88.378z"></path>
		</defs>
		<clipPath id="SVGID_50_">
			<use xlink:href="#SVGID_49_"></use>
		</clipPath>
		<g clip-path="url(#SVGID_50_)">
			<defs>
				<rect id="SVGID_51_" x="-617" y="-3351" width="1440" height="6814"></rect>
			</defs>
			<clipPath id="SVGID_52_">
				<use xlink:href="#SVGID_51_"></use>
			</clipPath>
			<rect x="34" y="16" clip-path="url(#SVGID_52_)" fill="#C8E9EC" width="230" height="563"></rect>
		</g>
	</g>
</g>
</svg>